<?xml version="1.0" standalone="no"?>
<!DOCTYPE svg PUBLIC "-//W3C//DTD SVG 20010904//EN"
 "http://www.w3.org/TR/2001/REC-SVG-20010904/DTD/svg10.dtd">
<svg version="1.0" xmlns="http://www.w3.org/2000/svg"
 width="2000.000000pt" height="2000.000000pt" viewBox="0 0 2000.000000 2000.000000"
 preserveAspectRatio="xMidYMid meet">

<g transform="translate(0.000000,2000.000000) scale(0.100000,-0.100000)"
fill="#000000" stroke="none">
<path d="M11830 13608 c-16 -40 -61 -355 -54 -383 4 -14 10 -23 14 -18 9 11
38 197 39 252 0 24 5 47 11 51 15 10 25 106 11 114 -6 4 -15 -3 -21 -16z m-23
-270 c-3 -8 -6 -5 -6 6 -1 11 2 17 5 13 3 -3 4 -12 1 -19z"/>
<path d="M11120 13568 c1 -18 5 -53 11 -78 5 -25 25 -133 44 -240 19 -107 50
-285 70 -395 20 -110 43 -240 51 -290 8 -49 21 -121 28 -160 8 -38 20 -106 26
-150 7 -44 16 -84 20 -88 4 -5 1 27 -6 70 -20 126 -73 462 -85 543 -6 41 -26
167 -44 280 -19 113 -44 280 -56 373 -19 148 -24 167 -40 167 -15 0 -19 -7
-19 -32z"/>
<path d="M11705 12835 c-8 -56 -57 -377 -81 -527 -9 -54 -14 -103 -12 -110 3
-7 10 23 17 67 7 44 21 127 31 185 10 58 31 171 45 252 19 103 24 152 17 165
-8 14 -12 7 -17 -32z"/>
<path d="M7640 12295 c-86 -27 -159 -113 -160 -187 l0 -28 -72 1 c-112 2 -173
-30 -225 -119 -18 -31 -27 -63 -31 -112 -4 -58 -1 -74 19 -110 19 -35 21 -44
10 -48 -8 -3 -30 -19 -49 -37 -28 -26 -35 -40 -39 -81 -10 -95 40 -145 149
-149 56 -2 60 -4 121 -62 81 -78 142 -118 222 -148 113 -43 127 -34 94 59 -22
60 -24 63 -67 75 -57 15 -112 68 -112 108 0 55 38 66 123 36 69 -25 73 -12 26
81 -22 44 -39 89 -37 100 4 28 30 39 190 80 309 80 418 158 418 301 0 115 -47
212 -117 242 -49 20 -94 3 -161 -61 l-53 -50 -25 32 c-31 39 -97 79 -144 86
-19 3 -55 -1 -80 -9z"/>
<path d="M11800 12163 c-147 -145 -429 -163 -616 -39 l-51 34 -34 -20 c-62
-37 -73 -64 -37 -98 l22 -20 -22 -20 c-28 -27 -28 -54 1 -77 l24 -18 -24 -18
c-30 -23 -30 -62 0 -78 32 -17 32 -17 3 -40 -41 -32 -31 -59 31 -89 46 -22 53
-29 53 -55 0 -123 99 -219 254 -246 132 -23 249 12 338 101 61 61 82 110 77
182 -3 38 -2 40 41 59 51 23 90 56 90 76 0 7 -11 22 -24 34 l-24 21 24 23 c30
31 30 49 -1 73 l-24 19 24 23 c31 29 31 45 1 71 l-24 21 25 24 c29 29 27 50
-7 75 -47 34 -71 30 -120 -18z m59 -103 c-22 -13 -160 -50 -184 -50 -11 1 22
12 74 25 52 14 96 27 99 30 3 3 10 5 16 5 6 0 4 -5 -5 -10z m-216 -57 c-7 -2
-21 -2 -30 0 -10 3 -4 5 12 5 17 0 24 -2 18 -5z m-415 -10 c-10 -2 -26 -2 -35
0 -10 3 -2 5 17 5 19 0 27 -2 18 -5z m345 0 c-13 -2 -33 -2 -45 0 -13 2 -3 4
22 4 25 0 35 -2 23 -4z m-135 -10 c-32 -2 -86 -2 -120 0 -35 2 -9 3 57 3 66 0
94 -1 63 -3z m427 -32 c-6 -5 -21 -11 -35 -15 -21 -5 -20 -3 5 9 35 17 42 18
30 6z m-100 -36 c-22 -8 -49 -13 -60 -13 -11 0 0 6 25 13 59 17 87 17 35 0z
m-566 -31 c9 -8 -45 -2 -64 6 -14 7 -8 8 20 3 22 -3 42 -7 44 -9z m474 9 c-7
-2 -19 -2 -25 0 -7 3 -2 5 12 5 14 0 19 -2 13 -5z m-55 -10 c-10 -2 -28 -2
-40 0 -13 2 -5 4 17 4 22 1 32 -1 23 -4z m-330 -10 c-16 -2 -40 -2 -55 0 -16
2 -3 4 27 4 30 0 43 -2 28 -4z m230 0 c-15 -2 -42 -2 -60 0 -18 2 -6 4 27 4
33 0 48 -2 33 -4z m326 -48 c-17 -8 -44 -16 -60 -20 -16 -3 -6 4 21 14 57 22
86 26 39 6z m-114 -35 c-14 -4 -34 -8 -45 -8 -16 0 -15 2 5 8 14 4 34 8 45 8
16 0 15 -2 -5 -8z m-567 -17 c-7 -2 -19 -2 -25 0 -7 3 -2 5 12 5 14 0 19 -2
13 -5z m485 0 c-10 -2 -26 -2 -35 0 -10 3 -2 5 17 5 19 0 27 -2 18 -5z m-425
-10 c-7 -2 -21 -2 -30 0 -10 3 -4 5 12 5 17 0 24 -2 18 -5z m355 0 c-10 -2
-28 -2 -40 0 -13 2 -5 4 17 4 22 1 32 -1 23 -4z m-140 -10 c-32 -2 -86 -2
-120 0 -35 2 -9 3 57 3 66 0 94 -1 63 -3z m329 -69 c-3 -3 -12 -4 -19 -1 -8 3
-5 6 6 6 11 1 17 -2 13 -5z m-40 -10 c-3 -3 -12 -4 -19 -1 -8 3 -5 6 6 6 11 1
17 -2 13 -5z m-54 -11 c-7 -2 -19 -2 -25 0 -7 3 -2 5 12 5 14 0 19 -2 13 -5z
m-476 -9 c-3 -3 -12 -4 -19 -1 -8 3 -5 6 6 6 11 1 17 -2 13 -5z m421 -1 c-10
-2 -26 -2 -35 0 -10 3 -2 5 17 5 19 0 27 -2 18 -5z m-350 -10 c-10 -2 -28 -2
-40 0 -13 2 -5 4 17 4 22 1 32 -1 23 -4z m265 0 c-13 -2 -35 -2 -50 0 -16 2
-5 4 22 4 28 0 40 -2 28 -4z"/>
<path d="M15078 12067 c-9 -9 -18 -14 -20 -11 -3 2 -32 -21 -64 -51 -55 -53
-62 -56 -100 -52 -24 2 -51 -1 -65 -9 -40 -22 -66 -16 -101 21 -47 52 -89 75
-134 74 -38 -1 -38 -2 -9 -9 30 -8 30 -8 -8 -9 -23 -1 -36 3 -32 9 23 37 -117
-33 -153 -76 -16 -19 -34 -52 -41 -73 -38 -130 24 -327 110 -346 43 -10 156 4
173 20 7 8 16 12 19 9 3 -3 50 19 104 50 l98 57 92 -3 c50 -2 87 -6 81 -9 -5
-3 0 -9 11 -12 12 -3 19 -1 15 4 -3 5 2 6 10 3 9 -3 14 -9 13 -13 -1 -4 19
-29 46 -56 44 -45 59 -75 38 -75 -5 0 -11 -15 -15 -32 -7 -35 30 -198 45 -198
5 0 6 -6 4 -12 -3 -7 1 -38 9 -68 11 -43 12 -66 4 -105 -18 -86 -54 -101 -200
-84 -127 15 -210 2 -229 -33 -11 -21 1 -88 21 -113 4 -5 13 -27 20 -48 6 -20
15 -35 20 -32 4 3 6 -5 2 -17 -4 -16 -2 -19 8 -13 9 5 11 4 6 -3 -6 -10 37
-109 53 -122 3 -3 6 -11 7 -17 3 -35 4 -38 15 -23 8 12 9 10 4 -7 -4 -15 1
-29 14 -42 24 -24 48 -26 86 -9 19 9 22 14 13 21 -9 6 -8 7 5 3 16 -5 214 85
227 103 3 4 19 16 37 26 18 10 29 23 26 28 -3 6 -2 7 4 4 5 -4 29 8 52 25 41
30 43 32 38 77 -8 69 -84 491 -96 531 -20 63 -14 125 14 159 28 33 80 54 122
50 45 -5 53 6 53 77 0 59 -3 67 -32 100 -18 19 -40 36 -48 37 -8 2 -38 11 -67
22 l-52 18 5 70 c6 83 -17 141 -68 171 -46 26 -168 34 -190 13z m-658 -101 c0
-2 -8 -10 -17 -17 -16 -13 -17 -12 -4 4 13 16 21 21 21 13z m857 -122 l-7 -72
75 -7 c41 -4 81 -5 89 -2 14 6 54 -29 55 -48 1 -5 5 -10 10 -10 15 0 23 -12
13 -19 -5 -3 -24 10 -42 29 l-33 34 -38 -20 c-22 -11 -58 -19 -85 -19 l-48 0
29 -30 29 -30 -21 -22 -22 -21 -51 46 c-28 25 -81 78 -119 119 -64 69 -67 74
-51 91 9 9 21 17 27 17 6 0 38 -27 72 -59 l61 -59 0 51 c0 52 34 122 54 110 5
-3 6 -38 3 -79z m-229 -50 c20 -14 33 -52 13 -40 -5 3 -11 -1 -15 -9 -11 -31
-66 -10 -66 25 0 18 19 40 35 40 6 0 21 -7 33 -16z m101 -105 c110 -113 106
-107 86 -129 -10 -11 -23 -20 -29 -20 -6 0 -43 35 -83 77 l-73 77 22 23 c23
25 26 24 77 -28z m47 -1061 c4 -7 2 -8 -4 -4 -7 4 -12 3 -12 -2 0 -6 -6 -12
-13 -15 -7 -3 -13 3 -13 12 0 19 32 26 42 9z"/>
<path d="M15455 11740 c10 -11 20 -20 23 -20 3 0 -3 9 -13 20 -10 11 -20 20
-23 20 -3 0 3 -9 13 -20z"/>
<path d="M15770 10545 c28 -78 30 -89 16 -104 -21 -23 -163 -97 -233 -122 -56
-19 -171 -27 -211 -15 -12 4 -28 42 -51 116 -19 60 -36 110 -39 110 -2 0 -31
-16 -63 -35 -76 -47 -143 -122 -157 -177 -22 -84 -343 -1720 -340 -1734 3 -14
399 -502 408 -503 5 -1 151 664 150 687 0 6 4 12 8 12 4 0 52 -172 106 -382
296 -1151 305 -1182 328 -1201 12 -11 23 -15 25 -10 1 4 23 197 49 428 45 407
46 420 28 432 -54 35 -54 36 -44 78 6 22 77 356 160 743 l149 704 -29 59 c-17
32 -30 63 -30 69 0 26 21 4 54 -55 l36 -65 -125 -582 c-69 -321 -139 -646
-155 -723 -16 -77 -32 -150 -35 -163 -12 -50 173 -102 368 -103 65 0 121 1
123 4 5 4 364 1673 364 1689 0 4 7 8 16 8 12 0 15 -6 11 -22 -3 -13 -69 -320
-147 -683 -77 -363 -158 -739 -178 -835 -32 -149 -41 -176 -59 -185 -14 -6
-24 -22 -28 -45 -6 -34 -67 -310 -199 -900 l-63 -285 -987 -3 -987 -2 3 -23 3
-22 993 -3 992 -2 0 -95 0 -95 -949 0 c-521 0 -969 -3 -995 -6 -36 -5 -46 -11
-46 -25 0 -18 -21 -19 -579 -19 l-579 0 15 30 c19 39 9 84 -24 110 -25 20 -40
20 -612 20 l-586 0 -109 233 c-61 127 -176 372 -256 542 -81 171 -187 396
-236 500 -97 208 -134 259 -219 303 l-50 27 -883 3 c-878 2 -884 2 -917 -18
-39 -24 -71 -95 -60 -132 4 -12 74 -193 156 -401 82 -207 217 -549 300 -760
134 -342 154 -386 189 -419 l39 -38 -859 0 -860 0 0 94 0 94 134 289 c73 158
220 474 325 700 105 227 191 423 191 436 0 54 -87 89 -125 51 -9 -10 -34 -56
-56 -103 -22 -47 -135 -292 -252 -544 l-212 -458 -3 123 c-2 68 4 230 13 361
10 131 14 241 11 244 -3 4 -6 -3 -6 -14 0 -22 -14 -29 -105 -56 -151 -46 -359
-82 -552 -98 -166 -14 -362 -3 -511 27 -45 9 -85 15 -88 12 -19 -19 -93 -868
-76 -868 3 0 57 12 121 26 65 15 131 24 152 21 22 -3 92 -40 185 -98 l148 -94
-349 -6 c-434 -7 -429 -8 -459 43 -17 28 -47 53 -113 92 -301 177 -539 379
-691 584 -70 94 -111 171 -197 372 -104 241 -219 474 -279 564 -67 100 -142
173 -266 256 -52 35 -124 85 -159 112 -35 26 -71 48 -81 48 -26 0 -133 -68
-259 -166 -134 -103 -389 -348 -499 -479 -429 -510 -704 -1095 -843 -1789 -23
-115 -27 -151 -17 -157 9 -6 10 -18 0 -56 -37 -148 -38 -274 -5 -371 34 -102
131 -218 217 -261 107 -53 -11 -44 1725 -121 255 -12 471 -25 480 -30 30 -16
48 -45 71 -115 13 -38 39 -103 58 -143 l34 -74 -11 -271 c-11 -262 -28 -498
-52 -752 l-12 -120 -178 -454 c-99 -250 -179 -465 -179 -477 0 -27 32 -64 56
-64 35 0 53 24 94 127 24 59 46 111 49 115 3 4 33 0 66 -8 94 -23 400 -32 718
-22 158 4 304 12 324 16 l36 8 -62 66 c-67 72 -157 135 -237 164 -41 16 -75
19 -209 17 -204 -2 -285 -10 -285 -28 0 -34 -170 -45 -243 -16 l-27 11 25 67
c15 37 29 71 33 75 4 3 36 0 72 -8 78 -16 123 -17 171 -4 l36 10 77 308 c42
169 92 376 110 460 19 85 36 156 39 158 2 3 40 -38 83 -91 l78 -95 159 -403
c301 -766 352 -892 370 -909 9 -10 26 -18 37 -18 26 0 60 34 60 62 0 18 -142
388 -329 857 l-49 124 52 -54 c29 -30 134 -137 234 -239 l181 -186 -25 -68
c-38 -106 -77 -272 -70 -301 11 -43 41 -53 196 -65 80 -6 153 -16 163 -21 54
-29 413 235 814 599 93 84 120 95 109 42 -5 -27 -4 -28 22 -20 70 21 79 35 63
97 -14 52 -56 294 -75 428 -65 456 -111 1087 -132 1828 l-7 237 1529 0 1529 0
101 -88 c55 -48 248 -213 429 -367 181 -154 351 -300 377 -324 l48 -44 668 7
c949 10 1090 20 1240 94 127 62 173 179 138 350 -16 77 -70 221 -122 324 l-24
48 308 0 309 0 26 -62 c55 -131 500 -1263 500 -1273 0 -6 -120 -316 -267 -690
-148 -374 -295 -748 -328 -832 l-59 -152 -65 -36 c-82 -46 -220 -150 -241
-181 -24 -37 2 -70 64 -81 76 -13 613 -9 783 6 235 20 250 34 231 220 -7 64
-14 126 -17 138 -6 22 -6 22 -27 2 -24 -22 -91 -25 -147 -6 -30 10 -71 54 -82
89 -4 12 -128 -11 -244 -47 -43 -13 -80 -22 -82 -20 -4 3 65 181 385 990 74
187 139 354 145 370 6 17 14 34 18 38 7 8 80 -162 80 -186 0 -6 -63 -203 -140
-436 -76 -234 -137 -428 -134 -433 10 -15 150 -92 219 -120 123 -48 112 -56
216 160 87 179 91 186 104 162 7 -14 56 -135 109 -270 54 -135 132 -333 174
-440 78 -198 96 -230 132 -230 27 0 60 35 60 63 0 13 -49 147 -109 297 -59
151 -152 385 -205 520 l-97 246 294 604 c161 333 434 896 607 1252 172 357
314 647 316 645 3 -3 51 -411 69 -592 24 -236 53 -596 72 -895 22 -345 25
-1350 5 -1579 -7 -79 -11 -146 -9 -148 7 -7 408 -35 414 -29 27 27 191 1073
257 1641 80 681 101 1009 101 1585 0 530 -14 728 -71 1007 -14 71 -14 74 7
103 26 34 28 23 -51 340 -103 412 -253 866 -427 1289 -75 183 -211 487 -269
602 l-48 94 3 108 c3 123 -8 184 -53 277 -42 87 -155 200 -260 259 -154 87
-381 157 -544 168 l-92 6 30 -88z m-601 -1225 c86 -399 95 -449 88 -456 -4 -4
-9 -5 -12 -2 -5 5 -41 161 -111 486 -31 147 -36 199 -14 175 4 -4 26 -96 49
-203z m-5061 -1776 c29 -19 79 -97 92 -144 5 -19 10 -62 10 -96 0 -84 -29
-128 -85 -132 -77 -5 -141 62 -171 180 -40 156 45 263 154 192z m-5087 -301
c193 -256 527 -494 867 -619 56 -21 102 -41 102 -45 0 -3 -7 -12 -15 -19 -17
-14 -20 -53 -5 -81 11 -19 -1 -19 -719 -19 -493 0 -739 -3 -758 -11 -40 -15
-73 -49 -73 -74 0 -20 97 -171 144 -224 11 -13 39 -32 61 -42 36 -17 71 -19
371 -19 l332 0 31 -77 c17 -43 31 -81 31 -84 0 -3 -24 -2 -52 2 -198 32 -798
100 -1275 144 l-72 7 91 121 c214 284 500 647 652 827 75 88 237 270 242 270
1 0 21 -26 45 -57z m1355 -1170 c-3 -10 -63 -163 -134 -341 l-128 -323 -11
118 c-14 139 -34 204 -74 238 -37 31 -158 68 -341 105 -77 16 -142 31 -145 34
-7 7 -73 168 -73 178 0 4 205 8 456 8 429 0 455 -1 450 -17z m178 -45 c3 -35
8 -166 11 -293 10 -407 63 -1126 111 -1495 7 -51 28 -85 -340 544 l-198 338
67 172 c128 323 297 751 306 774 17 44 37 26 43 -40z m715 -50 c69 -637 242
-1561 416 -2212 25 -93 43 -172 40 -176 -3 -4 -24 -11 -48 -14 -23 -4 -70 -21
-105 -39 -68 -35 -310 -244 -392 -338 -31 -35 -68 -66 -95 -78 -86 -38 -78
-42 -137 69 -29 55 -61 103 -70 106 -27 8 -22 21 12 27 37 8 198 111 207 133
3 9 2 24 -3 33 -10 16 -7 212 16 991 17 592 42 1066 75 1435 8 88 15 163 15
168 0 4 13 7 29 7 l28 0 12 -112z m8201 108 c0 -6 -451 -1150 -454 -1154 -2
-1 -23 46 -46 105 -23 59 -125 318 -226 575 -101 257 -184 470 -184 473 0 3
205 5 455 5 250 0 455 -2 455 -4z m180 -2 c0 -10 -482 -1478 -490 -1494 -9
-16 -8 -19 -54 105 l-23 60 258 655 c143 360 261 661 264 668 4 12 45 18 45 6z"/>
<path d="M11894 10310 c-62 -6 -98 -17 -151 -44 -67 -33 -75 -35 -174 -35 -75
0 -121 -5 -166 -19 -154 -48 -270 -171 -315 -331 -47 -171 2 -292 147 -356 28
-12 65 -26 83 -30 l32 -7 0 66 c0 61 3 69 34 104 90 99 216 125 331 67 39 -19
89 -59 142 -112 45 -46 86 -83 92 -83 15 0 18 79 5 131 -7 25 -10 58 -7 72 12
62 108 90 151 45 30 -33 42 -72 42 -139 0 -44 7 -73 25 -110 22 -42 26 -62 24
-127 -2 -69 1 -83 28 -132 17 -30 83 -158 147 -283 l117 -228 -53 -23 c-70
-31 -163 -46 -282 -46 -90 0 -98 2 -103 20 -5 20 -24 20 -61 1 -23 -13 -214
-461 -293 -692 l-54 -154 1 -125 c0 -115 3 -132 31 -207 17 -45 46 -103 64
-130 56 -83 250 -301 440 -496 l184 -187 100 -11 c137 -15 436 -15 515 0 148
28 420 107 420 123 0 19 -54 132 -117 246 -56 100 -155 255 -260 407 l-35 50
42 -45 c84 -89 356 -472 445 -625 10 -16 26 -13 230 50 121 37 222 69 224 72
9 8 -83 222 -160 370 -43 84 -116 211 -163 282 l-85 130 57 16 c171 50 242
125 250 264 5 96 -19 161 -84 221 -24 22 -44 47 -44 54 0 9 23 21 57 31 120
35 193 90 241 180 25 46 27 59 26 165 0 95 -4 125 -22 171 -42 106 -127 180
-255 222 -50 16 -90 21 -206 22 -102 1 -146 5 -149 13 -2 7 10 29 26 50 34 43
66 102 59 109 -3 2 -43 -1 -88 -8 -95 -15 -501 -16 -565 -3 l-41 9 22 68 c34
104 58 123 247 198 126 50 155 65 137 70 -19 5 -130 -2 -174 -11 -26 -6 -33 4
-37 50 -7 69 -73 198 -148 287 -222 266 -565 401 -926 363z"/>
<path d="M5258 10108 c-13 -19 -18 -21 -30 -10 -13 10 -20 6 -44 -25 -55 -73
-125 -116 -264 -163 -261 -89 -400 -221 -400 -383 0 -37 -1 -39 -25 -33 -34 9
-81 -17 -100 -54 -22 -42 -19 -89 10 -147 24 -47 116 -146 160 -170 19 -11 19
-12 1 -45 -15 -27 -16 -39 -8 -55 29 -53 233 -105 292 -73 15 8 17 16 10 47
-5 21 -14 39 -21 42 -29 9 -103 89 -121 129 -21 46 -18 70 12 97 42 38 95 13
146 -67 13 -21 31 -38 40 -38 9 0 14 3 12 8 -80 157 -93 212 -62 249 11 12 91
54 178 94 182 83 327 175 368 234 77 110 41 274 -76 353 -27 17 -52 32 -56 32
-4 0 -14 -10 -22 -22z"/>
<path d="M8900 9990 c-189 -11 -366 -26 -680 -56 -291 -28 -316 -32 -329 -48
-11 -14 -192 -648 -186 -654 2 -2 39 -10 82 -18 119 -20 297 -77 301 -95 1 -8
-7 -27 -18 -42 -17 -21 -30 -27 -63 -27 -46 -1 -46 0 17 -45 18 -13 18 -15 1
-41 -15 -23 -22 -26 -56 -21 l-38 5 32 -40 32 -40 -24 -19 c-28 -23 -52 -24
-91 -4 -29 15 -30 15 -102 -50 -75 -68 -146 -100 -204 -93 -26 3 -27 1 -80
-182 -29 -102 -53 -193 -54 -202 0 -9 10 -24 22 -32 20 -14 88 -16 545 -16
l523 0 50 68 c63 86 229 363 366 612 189 346 504 965 504 993 0 15 -7 30 -17
35 -26 14 -366 21 -533 12z m250 -113 c0 -11 -45 -15 -217 -21 -362 -11 -742
-41 -835 -67 -52 -14 -67 -41 -120 -220 -26 -89 -48 -149 -55 -149 -19 0 -17
13 33 181 50 168 70 202 134 219 59 16 275 38 475 50 288 16 290 16 443 18
113 2 142 -1 142 -11z m-506 -261 c105 -44 103 -192 -4 -236 -61 -25 -139 11
-160 76 -28 84 26 163 118 173 7 0 27 -5 46 -13z"/>
<path d="M11813 3773 c-17 -3 -24 -14 -29 -41 -3 -20 -17 -89 -30 -152 -65
-306 -127 -475 -185 -506 -45 -23 -127 -28 -218 -14 l-80 12 -58 -32 c-74 -42
-133 -88 -133 -105 0 -66 465 -75 588 -11 24 12 46 45 97 146 137 270 216 487
227 624 2 35 -1 42 -27 57 -31 17 -112 29 -152 22z"/>
<path d="M7848 3350 c-16 -61 -40 -291 -34 -323 10 -53 62 -94 128 -101 58 -6
428 -22 764 -32 207 -7 212 -6 233 15 11 11 21 25 21 30 0 33 -74 74 -438 246
-216 102 -395 185 -397 185 -3 0 -5 -8 -5 -19 0 -62 -253 -60 -262 2 -3 21 -4
21 -10 -3z"/>
<path d="M10155 3129 c-127 -52 -446 -108 -638 -112 l-112 -2 2 28 2 28 -57
-31 c-131 -73 -261 -192 -231 -210 27 -17 184 -22 346 -11 285 20 774 88 797
111 5 5 11 36 14 67 3 47 -1 67 -21 103 -13 25 -30 46 -38 47 -8 1 -36 -7 -64
-18z"/>
<path d="M16777 2860 c-103 -114 -194 -283 -181 -334 3 -13 17 -35 31 -48 24
-23 26 -23 268 -23 232 0 245 1 272 21 43 32 48 68 25 162 -23 92 -62 179 -99
223 -24 28 -26 28 -38 12 -13 -17 -16 -17 -78 0 -36 9 -81 17 -99 17 -19 0
-39 5 -45 11 -7 7 -24 -5 -56 -41z"/>
</g>
</svg>
