<svg width="429" height="103.53169014084507" viewBox="0 0 410.22222222222223 99" class="css-1j8o68f"><defs id="SvgjsDefs1599"></defs><g id="SvgjsG1600" featurekey="symbolContainer" transform="matrix(1,0,0,1,0,0)" fill="#062743"><rect width="118" height="99" rx="8"></rect></g><g id="SvgjsG1601" featurekey="symbolFeature-0" transform="matrix(0.8104637578838457,0,0,0.8104637578838457,32.5476001839917,23.234311656432915)" fill="#ff7a8a"><path xmlns="http://www.w3.org/2000/svg" d="M79.732,69.882c-3.174,0-4.77,1.021-6.313,2.008c-1.424,0.91-2.769,1.771-5.502,1.771s-4.078-0.86-5.502-1.771  c-0.785-0.503-1.587-1.012-2.602-1.393l9.899-29.023c0.014-0.041,0.01-0.082,0.016-0.124c0.007-0.04,0.024-0.076,0.024-0.118  c0-0.009-0.005-0.017-0.005-0.025c-0.002-0.057-0.019-0.107-0.032-0.161c-0.012-0.041-0.017-0.085-0.034-0.124  c-0.021-0.044-0.053-0.08-0.081-0.12c-0.027-0.038-0.051-0.079-0.085-0.111c-0.032-0.03-0.072-0.05-0.11-0.074  c-0.045-0.029-0.086-0.061-0.137-0.08c-0.009-0.003-0.015-0.011-0.023-0.014c-0.042-0.015-0.084-0.01-0.126-0.017  c-0.039-0.006-0.075-0.023-0.116-0.023c-2.108,0-4.025-0.079-5.814-0.214V19.528c0-0.601-0.489-1.09-1.09-1.09H50.967h-2.076V-9.07  c0-0.601-0.489-1.09-1.09-1.09H36.668h-5.653H19.881c-0.601,0-1.089,0.489-1.089,1.09v27.509h-2.076H5.582  c-0.6,0-1.088,0.489-1.088,1.09v20.739c-1.79,0.135-3.707,0.214-5.815,0.214c-0.042,0-0.079,0.018-0.119,0.024  c-0.042,0.006-0.083,0.002-0.124,0.016c-0.009,0.003-0.015,0.01-0.023,0.014c-0.05,0.02-0.092,0.051-0.136,0.079  c-0.038,0.025-0.079,0.045-0.111,0.075c-0.034,0.032-0.056,0.072-0.083,0.109c-0.029,0.041-0.062,0.077-0.083,0.123  c-0.017,0.038-0.022,0.08-0.033,0.122c-0.015,0.054-0.031,0.105-0.033,0.162c0,0.009-0.005,0.017-0.005,0.025  c0,0.042,0.017,0.078,0.024,0.118c0.007,0.042,0.002,0.083,0.016,0.124l9.708,28.465c-2.396,0.223-3.772,1.098-5.104,1.951  C1.149,72.8-0.195,73.66-2.926,73.66c-2.732,0-4.076-0.86-5.499-1.771c-1.542-0.987-3.136-2.008-6.307-2.008  c-0.414,0-0.75,0.336-0.75,0.75s0.336,0.75,0.75,0.75c2.732,0,4.076,0.86,5.499,1.771c1.542,0.987,3.136,2.008,6.308,2.008  c3.17,0,4.764-1.021,6.306-2.008c1.355-0.867,2.653-1.68,5.134-1.756c0.067,0.02,0.136,0.032,0.207,0.032  c0.08,0,0.162-0.013,0.242-0.04c0.002-0.001,0.003-0.002,0.005-0.003c2.667,0.02,4.001,0.867,5.406,1.767  c1.542,0.987,3.136,2.008,6.306,2.008c3.171,0,4.766-1.021,6.308-2.008c1.423-0.91,2.767-1.771,5.498-1.771  c2.733,0,4.078,0.86,5.5,1.771c1.543,0.987,3.138,2.008,6.311,2.008c3.172,0,4.767-1.021,6.309-2.008  c1.423-0.91,2.767-1.771,5.498-1.771c2.735,0,4.08,0.86,5.504,1.771c1.543,0.986,3.139,2.007,6.311,2.007s4.768-1.021,6.311-2.007  c1.424-0.911,2.769-1.771,5.504-1.771c0.414,0,0.75-0.336,0.75-0.75S80.146,69.882,79.732,69.882z M61.689,40.142  c-9.829-0.981-15.157-4.003-21.584-7.654c-1.738-0.988-3.54-2.007-5.514-3.033v-9.516h9.973v9.085c0,0.301,0.18,0.572,0.456,0.69  c0.274,0.118,0.596,0.059,0.813-0.149l2.307-2.215l2.307,2.215c0.143,0.137,0.33,0.209,0.52,0.209c0.1,0,0.199-0.02,0.294-0.06  c0.276-0.118,0.456-0.389,0.456-0.69v-9.085h9.973V40.142z M50.217,27.264l-1.557-1.495c-0.146-0.139-0.332-0.209-0.52-0.209  s-0.374,0.07-0.52,0.209l-1.557,1.495v-7.325h1.736h2.416V27.264z M35.918-8.66v7.325L34.361-2.83c-0.291-0.278-0.748-0.278-1.039,0  l-1.557,1.495V-8.66H35.918z M20.292-8.66h9.973v9.085c0,0.301,0.179,0.572,0.456,0.69c0.277,0.118,0.597,0.059,0.813-0.149  l2.307-2.215l2.307,2.215c0.143,0.137,0.33,0.209,0.52,0.209c0.1,0,0.199-0.02,0.294-0.06c0.276-0.118,0.456-0.389,0.456-0.69V-8.66  h9.973v27.099h-2.076H34.592v-5.128c0-0.414-0.336-0.75-0.75-0.75s-0.75,0.336-0.75,0.75v5.128H22.368h-2.076V-8.66z M19.881,19.938  h1.737v7.325l-1.557-1.495c-0.145-0.139-0.333-0.209-0.52-0.209s-0.375,0.07-0.52,0.209l-1.557,1.495v-7.325H19.881z M5.993,19.938  h9.973v9.085c0,0.301,0.179,0.572,0.456,0.69c0.277,0.118,0.597,0.059,0.813-0.149l2.307-2.215l2.307,2.215  c0.143,0.137,0.33,0.209,0.52,0.209c0.099,0,0.199-0.02,0.294-0.06c0.277-0.118,0.456-0.389,0.456-0.69v-9.085h9.974v9.516  c-1.974,1.025-3.775,2.045-5.514,3.033c-6.427,3.651-11.755,6.672-21.584,7.654V19.938z M49.797,71.889  c-1.423,0.911-2.767,1.771-5.5,1.771c-2.734,0-4.078-0.86-5.502-1.771c-1.543-0.986-3.138-2.007-6.309-2.007  c-3.17,0-4.765,1.021-6.307,2.008c-1.423,0.91-2.767,1.771-5.499,1.771c-2.731,0-4.075-0.86-5.497-1.771  c-1.478-0.946-3.02-1.913-5.937-1.993l-9.526-27.932c1.97-0.023,3.795-0.112,5.494-0.26c0.01,0,0.019,0.006,0.029,0.006  c0.025,0,0.047-0.012,0.071-0.015c10.72-0.947,16.5-4.209,23.004-7.904c1.744-0.991,3.55-2.014,5.523-3.037  c1.973,1.023,3.779,2.046,5.523,3.037c6.504,3.695,12.282,6.957,23.003,7.904c0.024,0.003,0.046,0.015,0.071,0.015  c0.01,0,0.019-0.006,0.028-0.006c1.698,0.147,3.523,0.236,5.493,0.26l-9.593,28.127c-0.661-0.13-1.4-0.21-2.265-0.21  C52.934,69.882,51.339,70.902,49.797,71.889z"></path><path xmlns="http://www.w3.org/2000/svg" d="M33.842,40.481c-5.125,0-9.293,4.169-9.293,9.293s4.169,9.293,9.293,9.293c5.124,0,9.293-4.169,9.293-9.293  S38.966,40.481,33.842,40.481z M33.842,57.567c-4.297,0-7.793-3.496-7.793-7.793s3.496-7.793,7.793-7.793  c4.297,0,7.793,3.496,7.793,7.793S38.139,57.567,33.842,57.567z"></path></g><g id="SvgjsG1602" featurekey="nameFeature-0" transform="matrix(1.8513483603187117,0,0,1.8513483603187117,136.14865208107713,-6.550239461822283)" fill="#ffffff"><path d="M8.4 16.2 l-7.16 0 q-0.24 -1.2 -0.24 -2.48 t0.24 -2.48 l20.2 0 q0.24 1.2 0.24 2.48 t-0.24 2.48 l-7.16 0 l0 23.8 l-1.44 0.12 q-0.72 0.08 -1.4 0.08 t-1.46 -0.04 t-1.58 -0.16 l0 -23.8 z M25.4 10.760000000000002 q0.68 -0.12 1.4 -0.16 t1.4 -0.04 t1.4 0.04 t1.44 0.16 l0 11 q0.28 -0.36 0.74 -0.86 t1.14 -0.96 t1.64 -0.78 t2.2 -0.32 q3.44 0 5.22 1.92 t1.78 6.04 l0 13.24 q-0.72 0.12 -1.44 0.16 t-1.4 0.04 t-1.4 -0.04 t-1.44 -0.16 l0 -11.72 q0 -2.16 -0.68 -3.32 t-2.32 -1.16 q-0.68 0 -1.4 0.2 t-1.3 0.78 t-0.96 1.62 t-0.38 2.72 l0 10.88 q-0.72 0.12 -1.44 0.16 t-1.4 0.04 t-1.38 -0.04 t-1.42 -0.16 l0 -29.28 z  M48.92 19.32 q0.6 -0.12 1.14 -0.18 t1.16 -0.06 t1.2 0.08 t1.14 0.2 q0.12 0.2 0.22 0.58 t0.18 0.78 l0.24 1.56 q0.88 -1.24 2.16 -2.22 t3.2 -0.98 q0.4 0 0.92 0.04 t0.76 0.12 q0.08 0.4 0.12 0.92 t0.04 1.08 q0 0.68 -0.06 1.48 t-0.22 1.52 q-0.44 -0.08 -0.96 -0.08 l-0.68 0 q-0.68 0 -1.52 0.14 t-1.6 0.74 t-1.26 1.8 t-0.5 3.36 l0 9.84 q-0.72 0.12 -1.44 0.16 t-1.4 0.04 t-1.38 -0.04 t-1.46 -0.16 l0 -20.72 z M75.32000000000001 30.52 q-0.48 -0.08 -1.04 -0.14 t-1 -0.06 q-1.96 0 -3.1 0.7 t-1.14 2.26 q0 1.04 0.44 1.6 t1.06 0.82 t1.32 0.32 t1.26 0.06 t1.16 -0.12 l1.04 -0.16 l0 -5.28 z M75.32000000000001 26.4 q0 -0.96 -0.32 -1.56 t-0.88 -0.94 t-1.38 -0.46 t-1.82 -0.12 q-2.16 0 -4.6 0.84 q-0.56 -1.04 -0.84 -1.96 t-0.28 -2.2 q1.76 -0.6 3.52 -0.88 t3.28 -0.28 q4.16 0 6.5 2 t2.34 6.4 l0 12 q-1.4 0.44 -3.4 0.84 t-4.52 0.4 q-2.04 0 -3.74 -0.36 t-2.92 -1.2 t-1.88 -2.16 t-0.66 -3.24 t0.82 -3.22 t2.12 -2.08 t2.9 -1.12 t3.2 -0.34 q1.16 0 2.56 0.12 l0 -0.48 z M83.48 19.32 q0.92 -0.2 1.64 -0.24 l1.28 0 q0.8 0 1.64 0.04 t1.52 0.2 l4.32 18.04 l4.88 -18.04 q1.32 -0.24 2.72 -0.24 l1.28 0 q0.68 0.04 1.68 0.24 l-7.72 25.56 q-0.48 1.52 -1.14 2.52 t-1.5 1.56 t-1.88 0.78 t-2.2 0.22 t-2.06 -0.14 t-1.78 -0.38 q-0.04 -0.2 -0.04 -0.36 l0 -0.28 q0 -0.96 0.22 -1.82 t0.54 -1.66 q0.36 0.12 0.96 0.22 t1.2 0.1 q0.48 0 0.96 -0.06 t0.94 -0.36 t0.86 -0.94 t0.72 -1.8 l0.68 -2.48 q-0.44 0.04 -0.96 0.04 l-1.96 0.04 l-0.72 -0.08 z M112.07999999999998 31.4 q0.16 2.4 1.68 3.48 t4 1.08 q1.36 0 2.78 -0.26 t2.7 -0.74 q0.44 0.8 0.76 1.92 t0.36 2.4 q-3.12 1.2 -7.04 1.2 q-2.88 0 -4.94 -0.8 t-3.36 -2.22 t-1.92 -3.38 t-0.62 -4.26 t0.64 -4.3 t1.9 -3.48 t3.12 -2.34 t4.34 -0.86 q2.16 0 3.84 0.76 t2.86 2.08 t1.78 3.14 t0.6 3.9 q0 0.76 -0.06 1.5 t-0.14 1.18 l-13.28 0 z M120.19999999999999 27.439999999999998 q-0.08 -1.92 -1.06 -3.1 t-2.74 -1.18 q-2 0 -3.04 1.12 t-1.24 3.16 l8.08 0 z M134.56 31.4 q0.16 2.4 1.68 3.48 t4 1.08 q1.36 0 2.78 -0.26 t2.7 -0.74 q0.44 0.8 0.76 1.92 t0.36 2.4 q-3.12 1.2 -7.04 1.2 q-2.88 0 -4.94 -0.8 t-3.36 -2.22 t-1.92 -3.38 t-0.62 -4.26 t0.64 -4.3 t1.9 -3.48 t3.12 -2.34 t4.34 -0.86 q2.16 0 3.84 0.76 t2.86 2.08 t1.78 3.14 t0.6 3.9 q0 0.76 -0.06 1.5 t-0.14 1.18 l-13.28 0 z M142.68 27.439999999999998 q-0.08 -1.92 -1.06 -3.1 t-2.74 -1.18 q-2 0 -3.04 1.12 t-1.24 3.16 l8.08 0 z"></path></g></svg>